<mxfile host="Electron" modified="2023-07-21T18:49:17.123Z" agent="Mozilla/5.0 (X11; Linux x86_64) AppleWebKit/537.36 (KHTML, like Gecko) draw.io/21.6.1 Chrome/112.0.5615.204 Electron/24.6.1 Safari/537.36" etag="cpMnFKBaoOabX-Bk648I" version="21.6.1" type="device">
  <diagram name="Page-1" id="GOtxmTl-x517z7Cm9fr0">
    <mxGraphModel dx="2820" dy="1749" grid="1" gridSize="10" guides="1" tooltips="1" connect="1" arrows="1" fold="1" page="1" pageScale="1" pageWidth="4681" pageHeight="3300" math="0" shadow="0">
      <root>
        <mxCell id="0" />
        <mxCell id="1" parent="0" />
        <mxCell id="MPshjHnfK2mcv_0NpmO8-21" style="rounded=0;orthogonalLoop=1;jettySize=auto;html=1;fillColor=#d5e8d4;strokeColor=#82b366;dashed=1;endArrow=none;endFill=0;" edge="1" parent="1" source="MPshjHnfK2mcv_0NpmO8-1" target="MPshjHnfK2mcv_0NpmO8-16">
          <mxGeometry relative="1" as="geometry" />
        </mxCell>
        <mxCell id="MPshjHnfK2mcv_0NpmO8-1" value="&lt;p&gt;fn-call&lt;/p&gt;" style="rounded=0;whiteSpace=wrap;html=1;horizontal=0;fillColor=#d5e8d4;strokeColor=#82b366;" vertex="1" parent="1">
          <mxGeometry x="400" y="510" width="40" height="80" as="geometry" />
        </mxCell>
        <mxCell id="MPshjHnfK2mcv_0NpmO8-13" style="edgeStyle=orthogonalEdgeStyle;rounded=0;orthogonalLoop=1;jettySize=auto;html=1;exitX=0.5;exitY=1;exitDx=0;exitDy=0;entryX=0.5;entryY=1;entryDx=0;entryDy=0;" edge="1" parent="1" source="MPshjHnfK2mcv_0NpmO8-2" target="MPshjHnfK2mcv_0NpmO8-4">
          <mxGeometry relative="1" as="geometry">
            <Array as="points">
              <mxPoint x="660" y="620" />
              <mxPoint x="500" y="620" />
            </Array>
          </mxGeometry>
        </mxCell>
        <mxCell id="MPshjHnfK2mcv_0NpmO8-2" value="&lt;p&gt;fn-return&lt;/p&gt;" style="rounded=0;whiteSpace=wrap;html=1;horizontal=0;fillColor=#d5e8d4;strokeColor=#82b366;" vertex="1" parent="1">
          <mxGeometry x="640" y="510" width="40" height="80" as="geometry" />
        </mxCell>
        <mxCell id="MPshjHnfK2mcv_0NpmO8-3" value="&lt;p&gt;expr-exec&lt;/p&gt;" style="rounded=0;whiteSpace=wrap;html=1;horizontal=0;fillColor=#f8cecc;strokeColor=#b85450;" vertex="1" parent="1">
          <mxGeometry x="520" y="510" width="40" height="80" as="geometry" />
        </mxCell>
        <mxCell id="MPshjHnfK2mcv_0NpmO8-4" value="&lt;p&gt;fn-call&lt;/p&gt;" style="rounded=0;whiteSpace=wrap;html=1;horizontal=0;fillColor=#d5e8d4;strokeColor=#82b366;" vertex="1" parent="1">
          <mxGeometry x="480" y="510" width="40" height="80" as="geometry" />
        </mxCell>
        <mxCell id="MPshjHnfK2mcv_0NpmO8-19" style="rounded=0;orthogonalLoop=1;jettySize=auto;html=1;exitX=0.5;exitY=1;exitDx=0;exitDy=0;endArrow=none;endFill=0;dashed=1;fillColor=#f8cecc;strokeColor=#b85450;" edge="1" parent="1" source="MPshjHnfK2mcv_0NpmO8-5" target="MPshjHnfK2mcv_0NpmO8-18">
          <mxGeometry relative="1" as="geometry" />
        </mxCell>
        <mxCell id="MPshjHnfK2mcv_0NpmO8-5" value="&lt;p&gt;expr-exec&lt;/p&gt;" style="rounded=0;whiteSpace=wrap;html=1;horizontal=0;fillColor=#f8cecc;strokeColor=#b85450;" vertex="1" parent="1">
          <mxGeometry x="560" y="510" width="40" height="80" as="geometry" />
        </mxCell>
        <mxCell id="MPshjHnfK2mcv_0NpmO8-6" value="&lt;p&gt;expr-exec&lt;/p&gt;" style="rounded=0;whiteSpace=wrap;html=1;horizontal=0;fillColor=#f8cecc;strokeColor=#b85450;" vertex="1" parent="1">
          <mxGeometry x="600" y="510" width="40" height="80" as="geometry" />
        </mxCell>
        <mxCell id="MPshjHnfK2mcv_0NpmO8-7" value="&lt;p&gt;expr-exec&lt;/p&gt;" style="rounded=0;whiteSpace=wrap;html=1;horizontal=0;fillColor=#f8cecc;strokeColor=#b85450;" vertex="1" parent="1">
          <mxGeometry x="680" y="510" width="40" height="80" as="geometry" />
        </mxCell>
        <mxCell id="MPshjHnfK2mcv_0NpmO8-8" value="&lt;p&gt;expr-exec&lt;/p&gt;" style="rounded=0;whiteSpace=wrap;html=1;horizontal=0;fillColor=#f8cecc;strokeColor=#b85450;" vertex="1" parent="1">
          <mxGeometry x="720" y="510" width="40" height="80" as="geometry" />
        </mxCell>
        <mxCell id="MPshjHnfK2mcv_0NpmO8-12" style="edgeStyle=orthogonalEdgeStyle;rounded=0;orthogonalLoop=1;jettySize=auto;html=1;entryX=0.418;entryY=1.002;entryDx=0;entryDy=0;entryPerimeter=0;" edge="1" parent="1" source="MPshjHnfK2mcv_0NpmO8-9" target="MPshjHnfK2mcv_0NpmO8-1">
          <mxGeometry relative="1" as="geometry">
            <Array as="points">
              <mxPoint x="820" y="650" />
              <mxPoint x="417" y="650" />
            </Array>
          </mxGeometry>
        </mxCell>
        <mxCell id="MPshjHnfK2mcv_0NpmO8-20" style="rounded=0;orthogonalLoop=1;jettySize=auto;html=1;entryX=0.5;entryY=0;entryDx=0;entryDy=0;endArrow=none;endFill=0;fillColor=#d5e8d4;strokeColor=#82b366;dashed=1;exitX=0.5;exitY=1;exitDx=0;exitDy=0;" edge="1" parent="1" source="MPshjHnfK2mcv_0NpmO8-9" target="MPshjHnfK2mcv_0NpmO8-17">
          <mxGeometry relative="1" as="geometry">
            <mxPoint x="820" y="600" as="sourcePoint" />
          </mxGeometry>
        </mxCell>
        <mxCell id="MPshjHnfK2mcv_0NpmO8-9" value="&lt;p&gt;fn-return&lt;/p&gt;" style="rounded=0;whiteSpace=wrap;html=1;horizontal=0;fillColor=#d5e8d4;strokeColor=#82b366;" vertex="1" parent="1">
          <mxGeometry x="800" y="510" width="40" height="80" as="geometry" />
        </mxCell>
        <mxCell id="MPshjHnfK2mcv_0NpmO8-10" value="..." style="text;html=1;strokeColor=none;fillColor=none;align=center;verticalAlign=middle;whiteSpace=wrap;rounded=0;" vertex="1" parent="1">
          <mxGeometry x="750" y="535" width="60" height="30" as="geometry" />
        </mxCell>
        <mxCell id="MPshjHnfK2mcv_0NpmO8-11" value="&lt;p&gt;expr-exec&lt;/p&gt;" style="rounded=0;whiteSpace=wrap;html=1;horizontal=0;fillColor=#f8cecc;strokeColor=#b85450;" vertex="1" parent="1">
          <mxGeometry x="440" y="510" width="40" height="80" as="geometry" />
        </mxCell>
        <mxCell id="MPshjHnfK2mcv_0NpmO8-15" value="A thread timeline" style="swimlane;whiteSpace=wrap;html=1;" vertex="1" parent="1">
          <mxGeometry x="360" y="470" width="510" height="200" as="geometry" />
        </mxCell>
        <mxCell id="MPshjHnfK2mcv_0NpmO8-16" value="&lt;h1&gt;&lt;font style=&quot;font-size: 12px;&quot;&gt;fn-call&amp;nbsp;&lt;/font&gt;&lt;/h1&gt;&lt;p style=&quot;line-height: 60%;&quot;&gt;- fnName&amp;nbsp; &amp;nbsp; &amp;nbsp; &amp;nbsp; &amp;nbsp; &amp;nbsp; (String)&lt;/p&gt;&lt;p style=&quot;line-height: 60%;&quot;&gt;- fnNs&amp;nbsp; &amp;nbsp; &amp;nbsp; &amp;nbsp; &amp;nbsp; &amp;nbsp; &amp;nbsp; &amp;nbsp; &amp;nbsp;(String)&lt;/p&gt;&lt;p style=&quot;line-height: 60%;&quot;&gt;- formId&amp;nbsp; &amp;nbsp; &amp;nbsp; &amp;nbsp; &amp;nbsp; &amp;nbsp; &amp;nbsp; (int)&lt;/p&gt;&lt;p style=&quot;line-height: 60%;&quot;&gt;- fnArgs&amp;nbsp; &amp;nbsp; &amp;nbsp; &amp;nbsp; &amp;nbsp; &amp;nbsp; &amp;nbsp; (reference)&lt;/p&gt;&lt;p style=&quot;line-height: 60%;&quot;&gt;&lt;span style=&quot;background-color: initial;&quot;&gt;- thisIdx&amp;nbsp; &amp;nbsp; &amp;nbsp; &amp;nbsp; &amp;nbsp; &amp;nbsp; &amp;nbsp; (int)&lt;/span&gt;&lt;br&gt;&lt;/p&gt;&lt;p style=&quot;line-height: 60%;&quot;&gt;- parentIdx&amp;nbsp; &amp;nbsp; &amp;nbsp; &amp;nbsp; &amp;nbsp;(int)&lt;/p&gt;&lt;p style=&quot;line-height: 60%;&quot;&gt;&lt;span style=&quot;background-color: initial;&quot;&gt;- retIdx&amp;nbsp; &amp;nbsp; &amp;nbsp; &amp;nbsp; &amp;nbsp; &amp;nbsp; &amp;nbsp; &amp;nbsp;(int)&lt;/span&gt;&lt;/p&gt;&lt;p style=&quot;line-height: 60%;&quot;&gt;- frameBindings (array)&lt;span style=&quot;background-color: initial;&quot;&gt;&lt;br&gt;&lt;/span&gt;&lt;/p&gt;" style="text;html=1;strokeColor=#82b366;fillColor=#d5e8d4;spacing=5;spacingTop=-20;whiteSpace=wrap;overflow=hidden;rounded=0;" vertex="1" parent="1">
          <mxGeometry x="380" y="770" width="190" height="210" as="geometry" />
        </mxCell>
        <mxCell id="MPshjHnfK2mcv_0NpmO8-17" value="&lt;h1&gt;&lt;font style=&quot;font-size: 12px;&quot;&gt;fn-return&lt;/font&gt;&lt;/h1&gt;&lt;p style=&quot;line-height: 60%;&quot;&gt;- coord&amp;nbsp; &amp;nbsp; &amp;nbsp; (reference)&lt;/p&gt;&lt;p style=&quot;line-height: 60%;&quot;&gt;- retVal&amp;nbsp; &amp;nbsp; &amp;nbsp; (reference)&lt;/p&gt;&lt;p style=&quot;line-height: 60%;&quot;&gt;- fnCallIdx (int)&lt;/p&gt;&lt;p style=&quot;line-height: 60%;&quot;&gt;- thisIdx&amp;nbsp; &amp;nbsp; &amp;nbsp;(int)&lt;/p&gt;" style="text;html=1;strokeColor=#82b366;fillColor=#d5e8d4;spacing=5;spacingTop=-20;whiteSpace=wrap;overflow=hidden;rounded=0;" vertex="1" parent="1">
          <mxGeometry x="880" y="770" width="190" height="140" as="geometry" />
        </mxCell>
        <mxCell id="MPshjHnfK2mcv_0NpmO8-18" value="&lt;h1&gt;&lt;font style=&quot;font-size: 12px;&quot;&gt;expr-exec&amp;nbsp;&lt;/font&gt;&lt;/h1&gt;&lt;p style=&quot;line-height: 60%;&quot;&gt;- coord&amp;nbsp; &amp;nbsp; &amp;nbsp; (reference)&lt;/p&gt;&lt;p style=&quot;line-height: 60%;&quot;&gt;- exprVal&amp;nbsp; &amp;nbsp;(reference)&lt;/p&gt;&lt;p style=&quot;line-height: 60%;&quot;&gt;- fnCallIdx (int)&lt;/p&gt;&lt;p style=&quot;line-height: 60%;&quot;&gt;- thisIdx&amp;nbsp; &amp;nbsp; &amp;nbsp;(int)&lt;/p&gt;" style="text;html=1;strokeColor=#b85450;fillColor=#f8cecc;spacing=5;spacingTop=-20;whiteSpace=wrap;overflow=hidden;rounded=0;" vertex="1" parent="1">
          <mxGeometry x="620" y="770" width="190" height="130" as="geometry" />
        </mxCell>
        <mxCell id="MPshjHnfK2mcv_0NpmO8-29" style="rounded=0;orthogonalLoop=1;jettySize=auto;html=1;entryX=0.25;entryY=1;entryDx=0;entryDy=0;dashed=1;fillColor=#ffe6cc;strokeColor=#d79b00;endArrow=none;endFill=0;" edge="1" parent="1" source="MPshjHnfK2mcv_0NpmO8-22" target="MPshjHnfK2mcv_0NpmO8-23">
          <mxGeometry relative="1" as="geometry" />
        </mxCell>
        <mxCell id="MPshjHnfK2mcv_0NpmO8-22" value="&lt;h1&gt;&lt;font style=&quot;font-size: 12px;&quot;&gt;bind&amp;nbsp;&lt;/font&gt;&lt;/h1&gt;&lt;p style=&quot;line-height: 60%;&quot;&gt;- symName&amp;nbsp; &amp;nbsp; &amp;nbsp; &amp;nbsp;(String)&lt;/p&gt;&lt;p style=&quot;line-height: 60%;&quot;&gt;- val&amp;nbsp; &amp;nbsp; &amp;nbsp; &amp;nbsp; &amp;nbsp; &amp;nbsp; &amp;nbsp; &amp;nbsp; &amp;nbsp; &amp;nbsp;(reference)&lt;/p&gt;&lt;p style=&quot;line-height: 60%;&quot;&gt;- coord&amp;nbsp; &amp;nbsp; &amp;nbsp; &amp;nbsp; &amp;nbsp; &amp;nbsp; &amp;nbsp; (reference)&lt;/p&gt;&lt;p style=&quot;line-height: 60%;&quot;&gt;- visibleAfterIdx (int)&lt;/p&gt;" style="text;html=1;strokeColor=#d79b00;fillColor=#ffe6cc;spacing=5;spacingTop=-20;whiteSpace=wrap;overflow=hidden;rounded=0;" vertex="1" parent="1">
          <mxGeometry x="550" y="1020" width="190" height="130" as="geometry" />
        </mxCell>
        <mxCell id="MPshjHnfK2mcv_0NpmO8-26" value="" style="group" vertex="1" connectable="0" parent="1">
          <mxGeometry x="520" y="950" width="30" height="20" as="geometry" />
        </mxCell>
        <mxCell id="MPshjHnfK2mcv_0NpmO8-23" value="" style="rounded=0;whiteSpace=wrap;html=1;fillColor=#ffe6cc;strokeColor=#d79b00;" vertex="1" parent="MPshjHnfK2mcv_0NpmO8-26">
          <mxGeometry width="10" height="20" as="geometry" />
        </mxCell>
        <mxCell id="MPshjHnfK2mcv_0NpmO8-24" value="" style="rounded=0;whiteSpace=wrap;html=1;fillColor=#ffe6cc;strokeColor=#d79b00;" vertex="1" parent="MPshjHnfK2mcv_0NpmO8-26">
          <mxGeometry x="10" width="10" height="20" as="geometry" />
        </mxCell>
        <mxCell id="MPshjHnfK2mcv_0NpmO8-25" value="" style="rounded=0;whiteSpace=wrap;html=1;fillColor=#ffe6cc;strokeColor=#d79b00;" vertex="1" parent="MPshjHnfK2mcv_0NpmO8-26">
          <mxGeometry x="20" width="10" height="20" as="geometry" />
        </mxCell>
        <mxCell id="MPshjHnfK2mcv_0NpmO8-30" value="&lt;font style=&quot;font-size: 21px;&quot;&gt;&lt;b&gt;Schema of the main storage structure. The timeline&lt;/b&gt;&lt;/font&gt;" style="text;html=1;strokeColor=none;fillColor=none;align=center;verticalAlign=middle;whiteSpace=wrap;rounded=0;" vertex="1" parent="1">
          <mxGeometry x="430" y="360" width="520" height="30" as="geometry" />
        </mxCell>
        <mxCell id="MPshjHnfK2mcv_0NpmO8-31" value="" style="swimlane;startSize=0;" vertex="1" parent="1">
          <mxGeometry x="130" y="290" width="1100" height="950" as="geometry" />
        </mxCell>
      </root>
    </mxGraphModel>
  </diagram>
</mxfile>
